. 
 
http://www.torrenting.com          :     Once & For all ;)


               www . Torrenting . Com 

(((((((((((((= Enjoy No RAR releases =))))))))))))))))))))


...................................NFO:....................................

.
      Contraband 2012 TS XviD READNFO - NoZGT

Sources:
Video: [Russian] Contraband [2012] TS - Lum1x -[PhAnToM][PDU]
Audio: Contraband 2012 TS Xvid READ NFO UnKnOwN

NoZGT2.avi
Format                           : AVI
Format/Info                      : Audio Video Interleave
File size                        : 1.15 GiB
Duration                         : 1h 42mn
Overall bit rate                 : 1 608 Kbps
Writing library                  : VirtualDub build 33848/release

Video
ID                               : 0
Format                           : MPEG-4 Visual
Format profile                   : Advanced Simple@L5
Format settings, BVOP            : Yes
Format settings, QPel            : No
Format settings, GMC             : No warppoints
Format settings, Matrix          : Default (H.263)
Muxing mode                      : Packed bitstream
Codec ID                         : XVID
Codec ID/Hint                    : XviD
Duration                         : 1h 42mn
Bit rate                         : 1 406 Kbps
Width                            : 720 pixels
Height                           : 304 pixels
Display aspect ratio             : 2.35:1
Frame rate                       : 25.000 fps
Color space                      : YUV
Chroma subsampling               : 4:2:0
Bit depth                        : 8 bits
Scan type                        : Progressive
Bits/(Pixel*Frame)               : 0.257
Stream size                      : 1.01 GiB (87%)
Writing library                  : XviD 1.2.1 (UTC 2008-12-04)

Audio
ID                               : 1
Format                           : MPEG Audio
Format version                   : Version 1
Format profile                   : Layer 3
Codec ID                         : 55
Codec ID/Hint                    : MP3
Duration                         : 1h 42mn
Bit rate mode                    : Constant
Bit rate                         : 192 Kbps
Channel(s)                       : 2 channels
Sampling rate                    : 44.1 KHz
Stream size                      : 141 MiB (12%)
Alignment                        : Split accross interleaves
Interleave, duration             : 40 ms (1.00 video frame)
Interleave, preload duration     : 500 ms
Workdone: 

Well load was done on this. Lol it only took me a whole day to try to sync this line audio. I went back to the main source of the video. The main source had more to it then what I can see on other sources. Basically I spent 3 days on chopping this video up trying to make it the best I could. If it goes out of sync for a second im sorry. Check screen and sample enjoy :)

Audio
I add like 30 sec at the end with Lum1x source because it cut off thx. "No subs added sorry"

NoZGT